<svg xmlns="http://www.w3.org/2000/svg" version="1.1" xmlns:xlink="http://www.w3.org/1999/xlink" xmlns:svgjs="http://svgjs.dev/svgjs" width="1000" height="1125" viewBox="0 0 1000 1125"><g transform="matrix(1,0,0,1,0,0)"><svg viewBox="0 0 320 360" data-background-color="#111111" preserveAspectRatio="xMidYMid meet" height="1125" width="1000" xmlns="http://www.w3.org/2000/svg" xmlns:xlink="http://www.w3.org/1999/xlink"><g id="tight-bounds" transform="matrix(1,0,0,1,0,0)"><svg viewBox="0 0 320 360" height="360" width="320"><rect width="320" height="360" fill="url(#17646316-5f5b-48ae-8cd6-3f522b645a28)" mask="url(#1dd31e89-5778-416e-aa9b-a26261796780)" data-fill-palette-color="tertiary"></rect><g><svg></svg></g><g><svg viewBox="0 0 320 360" height="360" width="320"><g><path xmlns="http://www.w3.org/2000/svg" d="M160 42.18c72.417 0 131.943 56.114 137.63 127.014h22.37c-1.137-17.82-5.308-34.882-12.133-51.185-7.962-18.957-19.716-36.398-34.502-50.805-14.787-14.787-31.848-26.161-50.806-34.503-20.095-8.341-40.948-12.891-62.559-12.891-21.611 0-42.464 4.171-62.559 12.512-18.957 7.962-36.398 19.716-50.806 34.503-14.787 14.787-26.161 31.848-34.502 50.805-6.825 16.303-10.995 33.744-12.133 51.185h22.37c5.687-70.521 65.213-126.635 137.63-126.635zM160 318.199c-72.417 0-131.943-56.114-137.63-127.014h-22.37c1.137 17.82 5.308 34.882 12.133 51.185 7.962 18.957 19.716 36.398 34.502 50.805 14.787 14.787 31.848 26.161 50.806 34.503 19.716 8.341 40.569 12.512 62.559 12.512 21.991 0 42.464-4.171 62.559-12.512 18.957-7.962 36.398-19.716 50.806-34.503 14.787-14.787 26.161-31.848 34.502-50.805 6.825-16.303 10.995-33.744 12.133-51.185h-22.37c-5.687 70.9-65.213 127.014-137.63 127.014z" fill="url(#17646316-5f5b-48ae-8cd6-3f522b645a28)" fill-rule="nonzero" stroke="none" stroke-width="1" stroke-linecap="butt" stroke-linejoin="miter" stroke-miterlimit="10" stroke-dasharray="" stroke-dashoffset="0" font-family="none" font-weight="none" font-size="none" text-anchor="none" style="mix-blend-mode: normal" data-fill-palette-color="tertiary"></path></g><g transform="matrix(1,0,0,1,79.9060834279831,90)"><svg viewBox="0 0 160.1878331440338 180" height="180" width="160.1878331440338"><g><svg viewBox="0 0 160.1878331440338 180" height="180" width="160.1878331440338"><g><svg viewBox="0 0 207.99999999999997 233.72561614174288" height="180" width="160.1878331440338"><g><svg viewBox="0 0 207.99999999999997 233.72561614174288" height="233.72561614174288" width="207.99999999999997"><g id="textblocktransform"><svg viewBox="0 0 207.99999999999997 233.72561614174288" height="233.72561614174288" width="207.99999999999997" id="textblock"><g><svg viewBox="0 0 207.99999999999997 177.94676806083646" height="177.94676806083646" width="207.99999999999997"><g transform="matrix(1,0,0,1,0,0)"><svg width="207.99999999999997" viewBox="-2 -31.75 40.45000076293945 34.75" height="177.94676806083646" data-palette-color="url(#00d362bb-42fc-4394-9b8e-852cb1eb28d6)"></svg></g></svg></g><g transform="matrix(1,0,0,1,2.5,200.06655310519642)"><svg viewBox="0 0 202.99999999999997 33.65906303654647" height="33.65906303654647" width="202.99999999999997"><g transform="matrix(1,0,0,1,0,0)"><svg width="202.99999999999997" viewBox="-2 -31.75 204.83999633789062 34.79999923706055" height="33.65906303654647" data-palette-color="url(#540d44ce-8c1d-4085-8ccc-5acbfa039695)"></svg></g></svg></g></svg></g></svg></g></svg></g></svg></g></svg></g></svg></g><defs></defs><mask id="21d67eaa-7d90-46cb-bad1-1d802978e180"><g id="SvgjsG2601"><svg viewBox="0 0 320 360" height="360" width="320"><g><svg></svg></g><g><svg viewBox="0 0 320 360" height="360" width="320"><g></g><g transform="matrix(1,0,0,1,79.9060834279831,90)"><svg viewBox="0 0 160.1878331440338 180" height="180" width="160.1878331440338"><g><svg viewBox="0 0 160.1878331440338 180" height="180" width="160.1878331440338"><g><svg viewBox="0 0 207.99999999999997 233.72561614174288" height="180" width="160.1878331440338"><g><svg viewBox="0 0 207.99999999999997 233.72561614174288" height="233.72561614174288" width="207.99999999999997"><g id="SvgjsG2600"><svg viewBox="0 0 207.99999999999997 233.72561614174288" height="233.72561614174288" width="207.99999999999997" id="SvgjsSvg2599"><g><svg viewBox="0 0 207.99999999999997 177.94676806083646" height="177.94676806083646" width="207.99999999999997"><g transform="matrix(1,0,0,1,0,0)"><svg width="207.99999999999997" viewBox="-2 -31.75 40.45000076293945 34.75" height="177.94676806083646" data-palette-color="url(#00d362bb-42fc-4394-9b8e-852cb1eb28d6)"><path d="M12.55 0L6.85 0 1-26.9 6.85-28.75 11.35-6.9 17.2-13.75 17.2-5.25 12.55 0ZM29.8 0L29.8 0 24.1 0 19.45-5.25 19.45-13.75 25.1-6.9 29.8-28.75 35.45-26.9 29.8 0Z" opacity="1" transform="matrix(1,0,0,1,0,0)" fill="white" class="wordmark-text-0" id="SvgjsPath2598"></path></svg></g></svg></g><g transform="matrix(1,0,0,1,2.5,200.06655310519642)"><svg viewBox="0 0 202.99999999999997 33.65906303654647" height="33.65906303654647" width="202.99999999999997"><g transform="matrix(1,0,0,1,0,0)"><svg width="202.99999999999997" viewBox="-2 -31.75 204.83999633789062 34.79999923706055" height="33.65906303654647" data-palette-color="url(#540d44ce-8c1d-4085-8ccc-5acbfa039695)"></svg></g></svg></g></svg></g></svg></g></svg></g></svg></g></svg></g></svg></g><defs></defs></svg></g></mask><linearGradient x1="0" x2="1" y1="0.5" y2="0.5" id="00d362bb-42fc-4394-9b8e-852cb1eb28d6"><stop stop-color="#ffa62e" offset="0"></stop><stop stop-color="#f71b3d" offset="1"></stop></linearGradient><rect width="320" height="360" fill="url(#00d362bb-42fc-4394-9b8e-852cb1eb28d6)" mask="url(#21d67eaa-7d90-46cb-bad1-1d802978e180)" data-fill-palette-color="primary"></rect><mask id="525098bc-3828-496d-a92e-f8b061fe8bea"><g id="SvgjsG2609"><svg viewBox="0 0 320 360" height="360" width="320"><g><svg></svg></g><g><svg viewBox="0 0 320 360" height="360" width="320"><g></g><g transform="matrix(1,0,0,1,79.9060834279831,90)"><svg viewBox="0 0 160.1878331440338 180" height="180" width="160.1878331440338"><g><svg viewBox="0 0 160.1878331440338 180" height="180" width="160.1878331440338"><g><svg viewBox="0 0 207.99999999999997 233.72561614174288" height="180" width="160.1878331440338"><g><svg viewBox="0 0 207.99999999999997 233.72561614174288" height="233.72561614174288" width="207.99999999999997"><g id="SvgjsG2608"><svg viewBox="0 0 207.99999999999997 233.72561614174288" height="233.72561614174288" width="207.99999999999997" id="SvgjsSvg2607"><g><svg viewBox="0 0 207.99999999999997 177.94676806083646" height="177.94676806083646" width="207.99999999999997"><g transform="matrix(1,0,0,1,0,0)"><svg width="207.99999999999997" viewBox="-2 -31.75 40.45000076293945 34.75" height="177.94676806083646" data-palette-color="url(#00d362bb-42fc-4394-9b8e-852cb1eb28d6)"></svg></g></svg></g><g transform="matrix(1,0,0,1,2.5,200.06655310519642)"><svg viewBox="0 0 202.99999999999997 33.65906303654647" height="33.65906303654647" width="202.99999999999997"><g transform="matrix(1,0,0,1,0,0)"><svg width="202.99999999999997" viewBox="-2 -31.75 204.83999633789062 34.79999923706055" height="33.65906303654647" data-palette-color="url(#540d44ce-8c1d-4085-8ccc-5acbfa039695)"><path d="M12.55 0L6.85 0 1-26.9 6.85-28.75 11.35-6.9 17.2-13.75 17.2-5.25 12.55 0ZM29.8 0L29.8 0 24.1 0 19.45-5.25 19.45-13.75 25.1-6.9 29.8-28.75 35.45-26.9 29.8 0ZM40.45-22L46.75-22 46.75 0.05 40.45 0.05 40.45-22ZM46.65-28.7L46.65-24.05 40.45-24.05 40.45-28.7 46.65-28.7ZM55.75-0.05L55.75-22 62.1-22 62.1-19.85 69.5-22 69.5-17.3 62.1-17.3 62.1-0.05 55.75-0.05ZM85.7-0.05L85.7-18.55 79.8-22 71.9-22 71.9-17.3 79.45-17.3 79.45-0.05 85.7-0.05ZM126.14-28.75L126.14-23.1 111.74-23.1 111.74 0 104.84 0 104.84-23.1 91.69-23.1 91.69-28.75 126.14-28.75ZM127.04-3.5L127.04-18.55 132.89-22 140.79-22 140.79-17.3 133.29-17.3 133.29-5.4 140.79-5.4 140.79-0.05 132.89-0.05 127.04-3.5ZM156.39-3.5L156.39-18.55 150.54-22 142.59-22 142.59-17.3 150.14-17.3 150.14-5.4 142.59-5.4 142.59-0.05 150.54-0.05 156.39-3.5ZM165.39 0L165.39-28.75 171.09-28.75 181.39-19.05 181.39-11.5 171.69-20.85 171.69 0 165.39 0ZM183.64-17.2L193.54-8.1 193.54-28.75 199.84-28.75 199.84 0 193.94 0 183.64-9.9 183.64-17.2Z" opacity="1" transform="matrix(1,0,0,1,0,0)" fill="white" class="slogan-text-1" id="SvgjsPath2606"></path></svg></g></svg></g></svg></g></svg></g></svg></g></svg></g></svg></g></svg></g><defs></defs><mask><g id="SvgjsG2605"><svg viewBox="0 0 320 360" height="360" width="320"><g><svg></svg></g><g><svg viewBox="0 0 320 360" height="360" width="320"><g></g><g transform="matrix(1,0,0,1,79.9060834279831,90)"><svg viewBox="0 0 160.1878331440338 180" height="180" width="160.1878331440338"><g><svg viewBox="0 0 160.1878331440338 180" height="180" width="160.1878331440338"><g><svg viewBox="0 0 207.99999999999997 233.72561614174288" height="180" width="160.1878331440338"><g><svg viewBox="0 0 207.99999999999997 233.72561614174288" height="233.72561614174288" width="207.99999999999997"><g id="SvgjsG2604"><svg viewBox="0 0 207.99999999999997 233.72561614174288" height="233.72561614174288" width="207.99999999999997" id="SvgjsSvg2603"><g><svg viewBox="0 0 207.99999999999997 177.94676806083646" height="177.94676806083646" width="207.99999999999997"><g transform="matrix(1,0,0,1,0,0)"><svg width="207.99999999999997" viewBox="-2 -31.75 40.45000076293945 34.75" height="177.94676806083646" data-palette-color="url(#00d362bb-42fc-4394-9b8e-852cb1eb28d6)"></svg></g></svg></g><g transform="matrix(1,0,0,1,2.5,200.06655310519642)"><svg viewBox="0 0 202.99999999999997 33.65906303654647" height="33.65906303654647" width="202.99999999999997"><g transform="matrix(1,0,0,1,0,0)"><svg width="202.99999999999997" viewBox="-2 -31.75 204.83999633789062 34.79999923706055" height="33.65906303654647" data-palette-color="url(#540d44ce-8c1d-4085-8ccc-5acbfa039695)"></svg></g></svg></g></svg></g></svg></g></svg></g></svg></g></svg></g></svg></g><defs></defs></svg></g></mask></svg></g></mask><linearGradient x1="0" x2="1" y1="0.5" y2="0.5" id="540d44ce-8c1d-4085-8ccc-5acbfa039695"><stop stop-color="#ffa62e" offset="0"></stop><stop stop-color="#f71b3d" offset="1"></stop></linearGradient><rect width="320" height="360" fill="url(#540d44ce-8c1d-4085-8ccc-5acbfa039695)" mask="url(#525098bc-3828-496d-a92e-f8b061fe8bea)" data-fill-palette-color="secondary"></rect><mask id="1dd31e89-5778-416e-aa9b-a26261796780"><g id="SvgjsG2623"><svg viewBox="0 0 320 360" height="360" width="320"><g><svg></svg></g><g><svg viewBox="0 0 320 360" height="360" width="320"><g><path xmlns="http://www.w3.org/2000/svg" d="M160 42.18c72.417 0 131.943 56.114 137.63 127.014h22.37c-1.137-17.82-5.308-34.882-12.133-51.185-7.962-18.957-19.716-36.398-34.502-50.805-14.787-14.787-31.848-26.161-50.806-34.503-20.095-8.341-40.948-12.891-62.559-12.891-21.611 0-42.464 4.171-62.559 12.512-18.957 7.962-36.398 19.716-50.806 34.503-14.787 14.787-26.161 31.848-34.502 50.805-6.825 16.303-10.995 33.744-12.133 51.185h22.37c5.687-70.521 65.213-126.635 137.63-126.635zM160 318.199c-72.417 0-131.943-56.114-137.63-127.014h-22.37c1.137 17.82 5.308 34.882 12.133 51.185 7.962 18.957 19.716 36.398 34.502 50.805 14.787 14.787 31.848 26.161 50.806 34.503 19.716 8.341 40.569 12.512 62.559 12.512 21.991 0 42.464-4.171 62.559-12.512 18.957-7.962 36.398-19.716 50.806-34.503 14.787-14.787 26.161-31.848 34.502-50.805 6.825-16.303 10.995-33.744 12.133-51.185h-22.37c-5.687 70.9-65.213 127.014-137.63 127.014z" fill="white" fill-rule="nonzero" stroke="none" stroke-width="1" stroke-linecap="butt" stroke-linejoin="miter" stroke-miterlimit="10" stroke-dasharray="" stroke-dashoffset="0" font-family="none" font-weight="none" font-size="none" text-anchor="none" style="mix-blend-mode: normal"></path></g><g transform="matrix(1,0,0,1,79.9060834279831,90)"><svg viewBox="0 0 160.1878331440338 180" height="180" width="160.1878331440338"><g><svg viewBox="0 0 160.1878331440338 180" height="180" width="160.1878331440338"><g><svg viewBox="0 0 207.99999999999997 233.72561614174288" height="180" width="160.1878331440338"><g><svg viewBox="0 0 207.99999999999997 233.72561614174288" height="233.72561614174288" width="207.99999999999997"><g id="SvgjsG2622"><svg viewBox="0 0 207.99999999999997 233.72561614174288" height="233.72561614174288" width="207.99999999999997" id="SvgjsSvg2621"><g><svg viewBox="0 0 207.99999999999997 177.94676806083646" height="177.94676806083646" width="207.99999999999997"><g transform="matrix(1,0,0,1,0,0)"><svg width="207.99999999999997" viewBox="-2 -31.75 40.45000076293945 34.75" height="177.94676806083646" data-palette-color="url(#00d362bb-42fc-4394-9b8e-852cb1eb28d6)"></svg></g></svg></g><g transform="matrix(1,0,0,1,2.5,200.06655310519642)"><svg viewBox="0 0 202.99999999999997 33.65906303654647" height="33.65906303654647" width="202.99999999999997"><g transform="matrix(1,0,0,1,0,0)"><svg width="202.99999999999997" viewBox="-2 -31.75 204.83999633789062 34.79999923706055" height="33.65906303654647" data-palette-color="url(#540d44ce-8c1d-4085-8ccc-5acbfa039695)"></svg></g></svg></g></svg></g></svg></g></svg></g></svg></g></svg></g></svg></g><defs></defs><mask><g id="SvgjsG2620"><svg viewBox="0 0 320 360" height="360" width="320"><g><svg></svg></g><g><svg viewBox="0 0 320 360" height="360" width="320"><g></g><g transform="matrix(1,0,0,1,79.9060834279831,90)"><svg viewBox="0 0 160.1878331440338 180" height="180" width="160.1878331440338"><g><svg viewBox="0 0 160.1878331440338 180" height="180" width="160.1878331440338"><g><svg viewBox="0 0 207.99999999999997 233.72561614174288" height="180" width="160.1878331440338"><g><svg viewBox="0 0 207.99999999999997 233.72561614174288" height="233.72561614174288" width="207.99999999999997"><g id="SvgjsG2619"><svg viewBox="0 0 207.99999999999997 233.72561614174288" height="233.72561614174288" width="207.99999999999997" id="SvgjsSvg2618"><g><svg viewBox="0 0 207.99999999999997 177.94676806083646" height="177.94676806083646" width="207.99999999999997"><g transform="matrix(1,0,0,1,0,0)"><svg width="207.99999999999997" viewBox="-2 -31.75 40.45000076293945 34.75" height="177.94676806083646" data-palette-color="url(#00d362bb-42fc-4394-9b8e-852cb1eb28d6)"></svg></g></svg></g><g transform="matrix(1,0,0,1,2.5,200.06655310519642)"><svg viewBox="0 0 202.99999999999997 33.65906303654647" height="33.65906303654647" width="202.99999999999997"><g transform="matrix(1,0,0,1,0,0)"><svg width="202.99999999999997" viewBox="-2 -31.75 204.83999633789062 34.79999923706055" height="33.65906303654647" data-palette-color="url(#540d44ce-8c1d-4085-8ccc-5acbfa039695)"></svg></g></svg></g></svg></g></svg></g></svg></g></svg></g></svg></g></svg></g><defs></defs></svg></g></mask><mask><g id="SvgjsG2616"><svg viewBox="0 0 320 360" height="360" width="320"><g><svg></svg></g><g><svg viewBox="0 0 320 360" height="360" width="320"><g></g><g transform="matrix(1,0,0,1,79.9060834279831,90)"><svg viewBox="0 0 160.1878331440338 180" height="180" width="160.1878331440338"><g><svg viewBox="0 0 160.1878331440338 180" height="180" width="160.1878331440338"><g><svg viewBox="0 0 207.99999999999997 233.72561614174288" height="180" width="160.1878331440338"><g><svg viewBox="0 0 207.99999999999997 233.72561614174288" height="233.72561614174288" width="207.99999999999997"><g id="SvgjsG2615"><svg viewBox="0 0 207.99999999999997 233.72561614174288" height="233.72561614174288" width="207.99999999999997" id="SvgjsSvg2614"><g><svg viewBox="0 0 207.99999999999997 177.94676806083646" height="177.94676806083646" width="207.99999999999997"><g transform="matrix(1,0,0,1,0,0)"><svg width="207.99999999999997" viewBox="-2 -31.75 40.45000076293945 34.75" height="177.94676806083646" data-palette-color="url(#00d362bb-42fc-4394-9b8e-852cb1eb28d6)"></svg></g></svg></g><g transform="matrix(1,0,0,1,2.5,200.06655310519642)"><svg viewBox="0 0 202.99999999999997 33.65906303654647" height="33.65906303654647" width="202.99999999999997"><g transform="matrix(1,0,0,1,0,0)"><svg width="202.99999999999997" viewBox="-2 -31.75 204.83999633789062 34.79999923706055" height="33.65906303654647" data-palette-color="url(#540d44ce-8c1d-4085-8ccc-5acbfa039695)"></svg></g></svg></g></svg></g></svg></g></svg></g></svg></g></svg></g></svg></g><defs></defs><mask><g id="SvgjsG2612"><svg viewBox="0 0 320 360" height="360" width="320"><g><svg></svg></g><g><svg viewBox="0 0 320 360" height="360" width="320"><g></g><g transform="matrix(1,0,0,1,79.9060834279831,90)"><svg viewBox="0 0 160.1878331440338 180" height="180" width="160.1878331440338"><g><svg viewBox="0 0 160.1878331440338 180" height="180" width="160.1878331440338"><g><svg viewBox="0 0 207.99999999999997 233.72561614174288" height="180" width="160.1878331440338"><g><svg viewBox="0 0 207.99999999999997 233.72561614174288" height="233.72561614174288" width="207.99999999999997"><g id="SvgjsG2611"><svg viewBox="0 0 207.99999999999997 233.72561614174288" height="233.72561614174288" width="207.99999999999997" id="SvgjsSvg2610"><g><svg viewBox="0 0 207.99999999999997 177.94676806083646" height="177.94676806083646" width="207.99999999999997"><g transform="matrix(1,0,0,1,0,0)"><svg width="207.99999999999997" viewBox="-2 -31.75 40.45000076293945 34.75" height="177.94676806083646" data-palette-color="url(#00d362bb-42fc-4394-9b8e-852cb1eb28d6)"></svg></g></svg></g><g transform="matrix(1,0,0,1,2.5,200.06655310519642)"><svg viewBox="0 0 202.99999999999997 33.65906303654647" height="33.65906303654647" width="202.99999999999997"><g transform="matrix(1,0,0,1,0,0)"><svg width="202.99999999999997" viewBox="-2 -31.75 204.83999633789062 34.79999923706055" height="33.65906303654647" data-palette-color="url(#540d44ce-8c1d-4085-8ccc-5acbfa039695)"></svg></g></svg></g></svg></g></svg></g></svg></g></svg></g></svg></g></svg></g><defs></defs></svg></g></mask></svg></g></mask></svg></g></mask><linearGradient x1="0" x2="1" y1="0.5" y2="0.5" id="17646316-5f5b-48ae-8cd6-3f522b645a28"><stop stop-color="#ffa62e" offset="0"></stop><stop stop-color="#f71b3d" offset="1"></stop></linearGradient></svg><rect width="320" height="360" fill="none" stroke="none" visibility="hidden"></rect></g></svg></g></svg>